# xmcd
#
# Track frame offsets:
#	150
#	12104
#	38194
#	55258
#	72157
#	90457
#	102397
#	124694
#	149717
#	171028
#	181210
#	197759
#	214697
#	240612
#
# Disc length: 3549 seconds
#
# Revision: 2
# Processed by: cddbd v1.5.2PL0 Copyright (c) Steve Scherf et al.
# Submitted via: EasyCDDAExtractor 12.0.4.1
#
DISCID=c20ddb0e
DTITLE=Various Artist - Lassina Coulibaly Kadi Faso - Burkina Faso Music of t
DTITLE=oday
DYEAR=2000
DGENRE=Worldmusic
TTITLE0=1. DOUSSOU - coeur
TTITLE1=2. GOUNDO YIRI DEN - le secret du fruit dun arbre
TTITLE2=3. MOGO MAN WOLE - personne ne m appele
TTITLE3=4. YAFAMMA - pardonne-moi
TTITLE4=5. DAMBE - identite culturelle
TTITLE5=6. SEME YIRI - confiance espoir conscience. Larbre de la vie
TTITLE6=7. AFRICAIN NOU - nous les Africains
TTITLE7=8. BENKANI - abus de confiance
TTITLE8=9. AYEBN DEME DELICOLA - aidez-moi dans mon travail
TTITLE9=10. FENCORO - les anciennes choses
TTITLE10=11. YANKADI - ici cest bon
TTITLE11=12. BORRO - LE SAC
TTITLE12=13. SAKA KOUNOU - la vie cest mourir et se reveiller
TTITLE13=14. ANTALA - on nest pas concernes
EXTD=
EXTT0=
EXTT1=
EXTT2=
EXTT3=
EXTT4=
EXTT5=
EXTT6=
EXTT7=
EXTT8=
EXTT9=
EXTT10=
EXTT11=
EXTT12=
EXTT13=
PLAYORDER=
